Coordinates
version=1
nRows=10
nColumns=38
inDegrees=yes

Units are S.I. units (second, meters, Newtons, ...)
Angles are in degrees.

endheader
time	pelvis_tilt	pelvis_list	pelvis_rotation	pelvis_tx	pelvis_ty	pelvis_tz	hip_flexion_r	hip_adduction_r	hip_rotation_r	knee_angle_r	ankle_angle_r	subtalar_angle_r	mtp_angle_r	hip_flexion_l	hip_adduction_l	hip_rotation_l	knee_angle_l	ankle_angle_l	subtalar_angle_l	mtp_angle_l	lumbar_extension	lumbar_bending	lumbar_rotation	arm_flex_r	arm_add_r	arm_rot_r	elbow_flex_r	pro_sup_r	wrist_flex_r	wrist_dev_r	arm_flex_l	arm_add_l	arm_rot_l	elbow_flex_l	pro_sup_l	wrist_flex_l	wrist_dev_l
      4.98333333	      2.42747720	      3.32350645	     -0.14705858	      0.82575305	      0.93464837	     -0.18771403	     -6.05652509	     -6.04906794	     -5.66346561	    -89.51505294	     -8.53010854	      0.00000000	      0.00000000	     31.82815787	      8.43493989	     -4.95567391	    -50.44554877	     15.52117725	      0.00000000	      0.00000000	    -13.01390516	     -5.08895427	     11.06343596	    -11.48256078	    -27.67654250	     10.85044340	     91.17229853	      7.92560611	      0.00000000	      0.00000000	    -20.16135681	    -27.86331571	     19.01951250	     74.72959569	      6.30878425	      0.00000000	      0.00000000
      5.00000000	      3.27278152	      3.27166631	      0.10976047	      0.81943773	      0.92805505	     -0.18886862	     -0.46056429	     -6.62175067	     -5.41051768	    -96.23185886	     -6.29110191	      0.00000000	      0.00000000	     28.70437370	      8.83207565	     -4.54613455	    -54.13542297	     18.49482967	      0.00000000	      0.00000000	    -16.01890085	     -5.26062931	      8.44175775	    -12.66626897	    -26.89503592	     12.17949609	     87.86723139	      7.83039650	      0.00000000	      0.00000000	    -15.32206558	    -26.96594529	     18.56101792	     74.89559451	      6.65614089	      0.00000000	      0.00000000
      5.01666667	      1.50836212	      3.76260489	     -0.40726133	      0.81446787	      0.92351267	     -0.18950573	      8.67088723	     -7.09492709	     -3.58200387	   -101.49405927	     -3.36437958	      0.00000000	      0.00000000	     26.66873368	      9.55955275	     -4.56606856	    -54.99645019	     20.83533441	      0.00000000	      0.00000000	    -13.09761557	     -6.04250524	      6.44043906	    -10.29945626	    -25.60661423	     18.07705289	     76.72572641	      7.82306154	      0.00000000	      0.00000000	     -9.50478771	    -26.88874785	     21.67955939	     72.18886987	      6.44519198	      0.00000000	      0.00000000
      5.03333333	      1.69375346	      3.40582774	     -0.26745302	      0.81101112	      0.92422408	     -0.19027661	     15.43076963	     -6.67979627	     -3.21721765	   -104.18111533	     -1.53088915	      0.00000000	      0.00000000	     21.38894655	      9.32481044	     -4.38778158	    -54.12907818	     22.23603506	      0.00000000	      0.00000000	    -14.12950674	     -5.26609491	      3.51994042	    -12.32780624	    -24.95498131	     19.12318666	     75.53271545	      8.18671665	      0.00000000	      0.00000000	     -6.11621473	    -26.41311280	     20.99795650	     73.35369806	      7.22365530	      0.00000000	      0.00000000
      5.05000000	      1.10733403	      2.96842114	     -0.31373141	      0.80746726	      0.92776670	     -0.19112880	     22.78278850	     -5.76740173	     -2.62944197	   -104.54481458	      1.01200181	      0.00000000	      0.00000000	     15.91331838	      9.33506695	     -2.94713995	    -51.11466168	     23.80409524	      0.00000000	      0.00000000	    -13.73104174	     -4.52646882	      1.27897128	    -14.16484673	    -24.46912147	     20.24903459	     74.01446301	      8.51516116	      0.00000000	      0.00000000	     -2.34838392	    -26.13768708	     20.07325986	     75.59459869	      7.97822195	      0.00000000	      0.00000000
      5.06666667	     -1.74255955	      2.85902518	      0.08002107	      0.80702578	      0.93174850	     -0.19155962	     31.69117339	     -4.99365516	     -2.36219404	   -102.67969649	      3.27519559	      0.00000000	      0.00000000	     12.18077324	      9.39989472	     -1.51547271	    -46.57509511	     23.23931107	      0.00000000	      0.00000000	     -9.44240639	     -4.82876499	     -2.18361524	    -14.87256135	    -23.66540445	     23.54133425	     69.13719614	      7.84389156	      0.00000000	      0.00000000	     -1.89178353	    -26.62955445	     17.70970731	     80.58586129	      6.75343741	      0.00000000	      0.00000000
      5.08333333	     -2.72734293	      2.03051551	      0.20409974	      0.80770902	      0.94078416	     -0.19173417	     37.41666363	     -3.68109973	     -2.72336794	    -98.31200125	      4.86166599	      0.00000000	      0.00000000	      6.03260304	      8.22464265	     -0.81032552	    -40.76574567	     20.59505648	      0.00000000	      0.00000000	     -7.47347877	     -3.96970365	     -4.40051039	    -17.79268358	    -23.62566555	     24.27468708	     69.26239128	      8.40248291	      0.00000000	      0.00000000	      0.27440457	    -26.47377046	     16.88531218	     83.61876707	      7.73190519	      0.00000000	      0.00000000
      5.10000000	     -4.10817963	      1.01366401	      0.27994391	      0.81218103	      0.95131340	     -0.19240833	     41.69878053	     -2.28840622	     -3.32746284	    -91.35841857	      6.49183809	      0.00000000	      0.00000000	     -0.26210851	      6.83995083	      0.15563550	    -33.47164064	     15.21575604	      0.00000000	      0.00000000	     -4.58084997	     -2.98345857	     -6.43597379	    -21.44043577	    -24.02843599	     24.25741479	     69.29317562	      9.01088972	      0.00000000	      0.00000000	      0.77800808	    -26.35320580	     16.00416715	     87.67479295	      8.69306620	      0.00000000	      0.00000000
      5.11666667	     -3.33255725	      0.30621341	     -0.41876394	      0.81815152	      0.96463135	     -0.19194434	     42.43603084	     -0.72608513	     -3.23690880	    -82.90893454	      8.00689747	      0.00000000	      0.00000000	     -9.47219131	      5.69670791	     -0.07695683	    -24.38103617	      7.75001101	      0.00000000	      0.00000000	     -5.00115395	     -2.39833960	     -9.31237444	    -23.99219683	    -24.26793942	     22.51585244	     70.35362526	      8.07240578	      0.00000000	      0.00000000	     -1.68085622	    -25.58239272	     10.22295020	     95.05908654	      7.43882344	      0.00000000	      0.00000000
      5.13333333	     -4.90852544	     -0.62143228	     -0.17608285	      0.82207466	      0.97376543	     -0.19216731	     44.59331877	      0.31821399	     -4.16871858	    -72.99226733	      8.95691085	      0.00000000	      0.00000000	    -14.06978260	      4.19553864	     -0.20590428	    -18.58435943	     -0.87751887	      0.00000000	      0.00000000	     -2.34290048	     -1.76808330	    -11.43297783	    -27.08676186	    -24.90293357	     22.36523508	     70.98763550	      8.07320989	      0.00000000	      0.00000000	     -1.66051468	    -25.75222083	      9.92310042	     99.61105699	      7.70042582	      0.00000000	      0.00000000
